<svg viewBox="0 0 512 512"><path d="M10.688 95.156L240.5 292c4.865 4.406 10.083 6.646 15.5 6.646 5.406 0 10.615-2.22 15.47-6.604 36.27-32.677 159.573-137.385 229.844-196.896 4.375-3.698 5.042-10.198 1.5-14.72C494.625 70 482.417 64 469.333 64H42.667c-13.083 0-25.292 6-33.48 16.438a10.66 10.66 0 0 0 1.5 14.718zm495.125 32.25a10.62 10.62 0 0 0-11.375 1.542L342.053 258.833c-2.406 2.063-3.76 5.094-3.708 8.27a10.64 10.64 0 0 0 4 8.135c42.5 34.03 106.52 80.844 152.76 114.115 1.844 1.333 4.03 2 6.23 2a10.57 10.57 0 0 0 4.865-1.177 10.66 10.66 0 0 0 5.802-9.49V137.083c-.001-4.156-2.418-7.937-6.188-9.677zM16.896 389.354c46.25-33.27 110.292-80.083 152.77-114.115 2.48-1.98 3.948-4.97 4-8.135a10.65 10.65 0 0 0-3.708-8.27L17.563 128.948c-3.167-2.688-7.625-3.28-11.375-1.542A10.66 10.66 0 0 0 0 137.083v243.615a10.66 10.66 0 0 0 5.802 9.49c1.53.792 3.198 1.177 4.865 1.177a10.62 10.62 0 0 0 6.229-2.011zm482.03 29.02C454.27 386.427 372 326.865 322.906 287c-4-3.26-9.792-3.156-13.73.24l-23.417 20.635c-17.563 15.854-41.938 15.854-59.542-.02L202.82 287.24c-3.906-3.417-9.708-3.52-13.72-.24-48.938 39.72-131.292 99.354-176.02 131.365a10.67 10.67 0 0 0-1.604 15.937C19.552 443 30.927 448 42.667 448h426.667c11.74 0 23.104-5 31.198-13.688 2.083-2.24 3.104-5.27 2.802-8.323a10.73 10.73 0 0 0-4.407-7.614z"/></svg>
