<svg viewBox="0 0 512 512"><path d="M483.737501,5.79150981e-07 L28.2375006,5.79150981e-07 C12.6406254,0.00937561915 -0.00312442085,12.6593758 5.79150981e-07,28.2625006 L5.79150981e-07,483.762501 C0.00937561915,499.359376 12.6593758,512.003125 28.2625006,512.000001 L273.500001,512.000001 L273.500001,314.000001 L207.000001,314.000001 L207.000001,236.500001 L273.500001,236.500001 L273.500001,179.465625 C273.500001,113.325001 313.878125,77.3250006 372.878125,77.3250006 C401.137501,77.3250006 425.421876,79.4312502 432.500001,80.3718758 L432.500001,149.500001 L391.815625,149.500001 C359.715625,149.500001 353.500001,164.753125 353.500001,187.140625 L353.500001,236.500001 L430.250001,236.500001 L420.250001,314.000001 L353.500001,314.000001 L353.500001,512.000001 L483.737501,512.000001 C499.343751,512.003125 511.996876,499.35625 512.000001,483.750001 L512.000001,483.737501 L512.000001,28.2375006 C511.993751,12.6406254 499.340625,-0.00312442085 483.737501,5.79150981e-07 L483.737501,5.79150981e-07 Z"/></svg>
